<svg width="25" height="24" viewBox="0 0 25 24" fill="none" xmlns="http://www.w3.org/2000/svg">
<path fill-rule="evenodd" clip-rule="evenodd" d="M20.3343 4.69583C19.9883 4.13177 19.3692 3.83631 18.7501 3.91168C18.6197 3.92755 18.3707 4.01788 17.8575 4.38267C17.3583 4.73754 16.726 5.26343 15.8296 6.01004L14.8165 6.85388V14.2205L16.0176 15.067C16.8916 15.683 17.5043 16.114 17.9866 16.4009C18.4783 16.6932 18.7165 16.7607 18.8473 16.7685C19.4467 16.8042 20.0291 16.4965 20.3519 15.9461C20.4272 15.8179 20.5085 15.5651 20.552 14.981C20.5948 14.407 20.5954 13.641 20.5954 12.5522V8.38075C20.5954 7.19519 20.5949 6.35661 20.5486 5.73194C20.5013 5.09124 20.4122 4.82285 20.3343 4.69583ZM13.0165 13.7873V7.33221H7.32638C6.71872 7.33221 6.30933 7.33273 5.99198 7.355C5.68321 7.37667 5.52912 7.41572 5.42481 7.46016C5.02346 7.63115 4.69678 7.96275 4.5247 8.39006C4.47804 8.50592 4.43914 8.6728 4.41777 8.99483C4.39591 9.32447 4.39545 9.74863 4.39545 10.3726V11.764C4.39545 12.058 4.39629 12.1478 4.40213 12.2154C4.47565 13.0666 5.12529 13.7094 5.9053 13.7807C5.96691 13.7864 6.0501 13.7873 6.33755 13.7873H13.0165ZM13.5908 5.53221L14.7081 4.60152C15.5671 3.88609 16.2523 3.31529 16.8146 2.91559C17.3696 2.52108 17.9296 2.19828 18.5325 2.12488C19.8687 1.9622 21.1639 2.60588 21.8686 3.75463C22.1847 4.2699 22.2926 4.9082 22.3437 5.59915C22.3955 6.2983 22.3955 7.20383 22.3954 8.34238V12.5901C22.3955 13.6324 22.3955 14.4658 22.3471 15.1148C22.2988 15.7616 22.1965 16.3591 21.9045 16.8568C21.2482 17.9757 20.0332 18.6423 18.7403 18.5653C18.1615 18.5308 17.6141 18.2735 17.0666 17.948C16.5169 17.6211 15.8472 17.1491 15.0128 16.561L13.6312 15.5873H13.3954V18.6204C13.3954 20.4076 11.9805 21.9 10.182 21.9C9.57429 21.9 8.96591 21.7257 8.44505 21.3721C7.31975 20.6083 6.48686 19.9045 6.00043 18.8149C5.61108 17.9428 5.47946 16.898 5.44665 15.5334C3.90732 15.2566 2.74558 13.9538 2.6088 12.3703C2.59537 12.2147 2.5954 12.0403 2.59544 11.8048C2.59544 11.7914 2.59545 11.7778 2.59545 11.764L2.59545 10.3426C2.59544 9.7561 2.59543 9.272 2.62172 8.87569C2.64896 8.46504 2.70726 8.08454 2.85501 7.71766C3.20135 6.85762 3.86905 6.16643 4.71929 5.80419C5.08432 5.64867 5.4624 5.58774 5.86597 5.55941C6.25384 5.53219 6.7267 5.5322 7.29506 5.53221L13.5908 5.53221ZM7.24921 15.5873C7.28483 16.8215 7.40468 17.5449 7.64407 18.0811C7.91626 18.6908 8.38985 19.1591 9.45597 19.8828C9.66384 20.0239 9.91655 20.1 10.182 20.1C10.9389 20.1 11.5954 19.4617 11.5954 18.6204V15.5873H7.24921Z" fill="#A2ACB0"/>
</svg>
