<svg width="24" height="24" viewBox="0 0 24 24" fill="none" xmlns="http://www.w3.org/2000/svg">
<path fill-rule="evenodd" clip-rule="evenodd" d="M12 3.90001C9.93801 3.90001 8.26767 5.57004 8.26767 7.62858C8.26767 9.68712 9.93801 11.3572 12 11.3572C14.062 11.3572 15.7324 9.68712 15.7324 7.62858C15.7324 5.57004 14.062 3.90001 12 3.90001ZM6.46767 7.62858C6.46767 4.57454 8.94528 2.10001 12 2.10001C15.0548 2.10001 17.5324 4.57454 17.5324 7.62858C17.5324 10.6826 15.0548 13.1572 12 13.1572C8.94528 13.1572 6.46767 10.6826 6.46767 7.62858ZM4.1196 16.2241C5.15414 15.27 6.417 14.9571 7.36765 14.9571H16.6324C17.583 14.9571 18.8459 15.27 19.8804 16.2241C20.9368 17.1985 21.65 18.7439 21.65 21C21.65 21.4971 21.2471 21.9 20.75 21.9C20.253 21.9 19.85 21.4971 19.85 21C19.85 19.1418 19.2765 18.1158 18.66 17.5473C18.0218 16.9586 17.2258 16.7571 16.6324 16.7571H7.36765C6.77419 16.7571 5.97823 16.9586 5.33997 17.5473C4.72355 18.1158 4.15001 19.1418 4.15001 21C4.15001 21.4971 3.74706 21.9 3.25001 21.9C2.75295 21.9 2.35001 21.4971 2.35001 21C2.35001 18.7439 3.06322 17.1985 4.1196 16.2241Z" fill="#007AFF"/>
</svg>
