<svg width="23" height="23" viewBox="0 0 23 23" fill="none" xmlns="http://www.w3.org/2000/svg">
<path d="M11.3608 7.29004C12.0171 7.40625 12.564 7.57715 13.0015 7.80273C13.439 8.02148 13.8184 8.29492 14.1396 8.62305C14.9736 9.4502 15.5273 10.3628 15.8008 11.3608C16.0742 12.3521 16.0708 13.3433 15.7905 14.3345C15.5171 15.3257 14.9702 16.2314 14.1499 17.0518L10.6431 20.5688C9.82959 21.3823 8.92725 21.9258 7.93604 22.1992C6.94482 22.4795 5.9502 22.4829 4.95215 22.2095C3.96094 21.936 3.04834 21.3823 2.21436 20.5483C1.38721 19.7212 0.836914 18.812 0.563477 17.8208C0.290039 16.8228 0.290039 15.8281 0.563477 14.8369C0.84375 13.8457 1.39062 12.9399 2.2041 12.1196L5.21875 9.11523C5.16406 9.4502 5.15381 9.80225 5.18799 10.1714C5.229 10.5337 5.32129 10.8755 5.46484 11.1968L3.45508 13.2065C2.86035 13.8013 2.46387 14.4575 2.26562 15.1753C2.06738 15.8931 2.06738 16.6143 2.26562 17.3389C2.46387 18.0566 2.86035 18.7163 3.45508 19.3179C4.0498 19.9126 4.70605 20.3057 5.42383 20.4971C6.14844 20.6953 6.86963 20.6953 7.5874 20.4971C8.30518 20.2988 8.96143 19.9023 9.55615 19.3076L12.9092 15.9648C13.5039 15.3701 13.897 14.7139 14.0884 13.9961C14.2866 13.2783 14.2866 12.5605 14.0884 11.8428C13.8901 11.1182 13.4937 10.4551 12.8989 9.85352C12.564 9.51855 12.1641 9.25195 11.6992 9.05371C11.2412 8.85547 10.6738 8.729 9.99707 8.67432L11.3608 7.29004ZM11.1045 15.7393C10.4482 15.623 9.90137 15.4556 9.46387 15.2368C9.02637 15.0112 8.64697 14.7344 8.32568 14.4062C7.4917 13.5791 6.93799 12.6699 6.66455 11.6787C6.39111 10.6807 6.39111 9.68604 6.66455 8.69482C6.94482 7.70361 7.49512 6.79785 8.31543 5.97754L11.812 2.4707C12.6323 1.65039 13.5381 1.10352 14.5293 0.830078C15.5205 0.549805 16.5117 0.546387 17.5029 0.819824C18.501 1.09326 19.417 1.64697 20.251 2.48096C21.0781 3.30811 21.6284 4.2207 21.9019 5.21875C22.1753 6.20996 22.1719 7.20117 21.8916 8.19238C21.6182 9.18359 21.0747 10.0894 20.2612 10.9097L17.2466 13.9141C17.3013 13.5791 17.3081 13.2305 17.2671 12.8682C17.2329 12.5059 17.144 12.1606 17.0005 11.8325L19.0103 9.82275C19.605 9.22803 20.0015 8.57178 20.1997 7.854C20.3979 7.13623 20.3979 6.41846 20.1997 5.70068C20.0015 4.97607 19.605 4.31641 19.0103 3.72168C18.4087 3.12012 17.749 2.72363 17.0312 2.53223C16.3135 2.33398 15.5957 2.33398 14.8779 2.53223C14.1602 2.73047 13.5005 3.12695 12.8989 3.72168L9.55615 7.06445C8.96143 7.65918 8.56494 8.31543 8.3667 9.0332C8.16846 9.75098 8.16846 10.4722 8.3667 11.1968C8.56494 11.9146 8.96484 12.5742 9.56641 13.1758C9.90137 13.5107 10.2979 13.7773 10.7559 13.9756C11.2207 14.1738 11.7915 14.3003 12.4683 14.355L11.1045 15.7393Z" fill="#007AFF"/>
</svg>
