<svg width="24" height="22" viewBox="0 0 24 22" fill="none" xmlns="http://www.w3.org/2000/svg">
<path d="M13.2734 15.6826C12.6172 15.6826 12.0225 15.5835 11.4893 15.3853C10.9629 15.1802 10.5322 14.9067 10.1973 14.5649C9.8623 14.2231 9.65381 13.8438 9.57178 13.4268C9.51709 13.1191 9.55127 12.8696 9.67432 12.6782C9.8042 12.4868 9.99902 12.3911 10.2588 12.3911C10.4023 12.3911 10.5391 12.4321 10.6689 12.5142C10.7988 12.5962 10.9014 12.7261 10.9766 12.9038C11.1611 13.396 11.438 13.7583 11.8071 13.9907C12.1831 14.2163 12.6719 14.3291 13.2734 14.3291C13.9297 14.3291 14.4561 14.1992 14.8525 13.9395C15.249 13.6729 15.4473 13.3174 15.4473 12.873C15.4473 12.4971 15.3276 12.2031 15.0884 11.9912C14.8491 11.7793 14.4424 11.605 13.8682 11.4683L12.4019 11.1196C11.4653 10.9009 10.7681 10.5728 10.3101 10.1353C9.85205 9.69092 9.62305 9.1167 9.62305 8.4126C9.62305 7.85205 9.77686 7.35645 10.0845 6.92578C10.3921 6.49512 10.8125 6.15674 11.3457 5.91064C11.8857 5.66455 12.501 5.5415 13.1914 5.5415C13.8408 5.5415 14.4082 5.6543 14.8936 5.87988C15.3789 6.09863 15.772 6.37891 16.0728 6.7207C16.3735 7.0625 16.5718 7.41455 16.6675 7.77686C16.7563 8.08447 16.7358 8.34424 16.606 8.55615C16.4761 8.76123 16.2778 8.86377 16.0112 8.86377C15.8677 8.86377 15.731 8.82275 15.6011 8.74072C15.4712 8.65186 15.3652 8.51855 15.2832 8.34082C15.1055 7.84863 14.8457 7.48633 14.5039 7.25391C14.1689 7.01465 13.7314 6.89502 13.1914 6.89502C12.5967 6.89502 12.1147 7.03174 11.7456 7.30518C11.3833 7.57178 11.2021 7.92041 11.2021 8.35107C11.2021 8.69287 11.332 8.97314 11.5918 9.19189C11.8516 9.40381 12.2686 9.58154 12.8428 9.7251L14.2988 10.084C15.2764 10.3232 15.9771 10.6514 16.4009 11.0684C16.8315 11.4785 17.0469 12.0425 17.0469 12.7603C17.0469 13.3276 16.8828 13.8335 16.5547 14.2778C16.2334 14.7153 15.7891 15.0605 15.2217 15.3135C14.6543 15.5596 14.0049 15.6826 13.2734 15.6826ZM12.6685 16.6875V4.51611C12.6685 4.34521 12.73 4.19824 12.853 4.0752C12.9761 3.95215 13.1196 3.89062 13.2837 3.89062C13.4546 3.89062 13.6016 3.95215 13.7246 4.0752C13.8477 4.19824 13.9092 4.34521 13.9092 4.51611V16.6875C13.9092 16.8584 13.8477 17.0054 13.7246 17.1284C13.6016 17.2515 13.4546 17.313 13.2837 17.313C13.1196 17.313 12.9761 17.2515 12.853 17.1284C12.73 17.0054 12.6685 16.8584 12.6685 16.6875ZM13.2837 21.0557C12.1353 21.0557 11.0381 20.8711 9.99219 20.502C8.94629 20.1396 7.98584 19.627 7.11084 18.9639C6.23584 18.3076 5.47363 17.5454 4.82422 16.6772C4.64648 16.4517 4.57812 16.2158 4.61914 15.9697C4.66699 15.7236 4.79346 15.5356 4.99854 15.4058C5.21729 15.2759 5.43604 15.2417 5.65479 15.3032C5.88037 15.3579 6.07178 15.4912 6.229 15.7031C6.74854 16.4277 7.37061 17.0601 8.09521 17.6001C8.82666 18.1401 9.62988 18.5571 10.5049 18.8511C11.3799 19.1519 12.3062 19.3057 13.2837 19.3125C14.4937 19.3193 15.625 19.0972 16.6777 18.646C17.7305 18.1948 18.6533 17.5728 19.4463 16.7798C20.2461 15.98 20.8716 15.0537 21.3228 14.001C21.7739 12.9414 21.9995 11.8066 21.9995 10.5967C21.9995 9.38672 21.7739 8.25537 21.3228 7.20264C20.8716 6.1499 20.2461 5.22705 19.4463 4.43408C18.6533 3.63428 17.7305 3.01221 16.6777 2.56787C15.625 2.1167 14.4937 1.89111 13.2837 1.89111C12.0737 1.89111 10.9424 2.1167 9.88965 2.56787C8.83691 3.01221 7.91064 3.63086 7.11084 4.42383C6.31104 5.2168 5.68555 6.13965 5.23438 7.19238C4.79004 8.24512 4.56787 9.37646 4.56787 10.5864H2.82471C2.82471 9.15771 3.09814 7.81445 3.64502 6.55664C4.19189 5.29199 4.94727 4.18115 5.91113 3.22412C6.875 2.26025 7.98584 1.50488 9.24365 0.958008C10.5083 0.411133 11.855 0.137695 13.2837 0.137695C14.7124 0.137695 16.0557 0.411133 17.3135 0.958008C18.5781 1.50488 19.6924 2.26025 20.6562 3.22412C21.6201 4.18799 22.3755 5.30225 22.9224 6.56689C23.4692 7.82471 23.7427 9.16797 23.7427 10.5967C23.7427 12.0254 23.4692 13.3721 22.9224 14.6367C22.3755 15.8945 21.6201 17.0054 20.6562 17.9692C19.6924 18.9331 18.5781 19.6885 17.3135 20.2354C16.0557 20.7822 14.7124 21.0557 13.2837 21.0557ZM1.56348 8.61768H6.27002C6.50928 8.61768 6.69043 8.66895 6.81348 8.77148C6.93652 8.86719 6.99463 8.99707 6.98779 9.16113C6.98779 9.31836 6.92285 9.49268 6.79297 9.68408L4.49609 12.9551C4.33203 13.1875 4.14062 13.3071 3.92188 13.314C3.70312 13.314 3.5083 13.1943 3.3374 12.9551L1.04053 9.69434C0.910645 9.50293 0.842285 9.3252 0.835449 9.16113C0.828613 8.99707 0.886719 8.86719 1.00977 8.77148C1.13281 8.66895 1.31738 8.61768 1.56348 8.61768Z" fill="#007AFF"/>
</svg>
